# xmcd
#
# Track frame offsets: 
#        150
#        11648
#        29852
#        42121
#        54285
#        66581
#        77471
#        89472
#        114143
#        129734
#        147783
#        161608
#
# Disc length: 2351 seconds
#
# Revision: 1
# Processed by: cddbd v1.5.2PL0 Copyright (c) Steve Scherf et al.
# Submitted via: ExactAudioCopy v1.0b3
#
DISCID=9c092d0c
DTITLE=Rainman - Rainman (1970)
DYEAR=1900
DGENRE=
TTITLE0=Rainman
TTITLE1=Natural Man
TTITLE2=Don't
TTITLE3=Vicious-Circle
TTITLE4=Don't Make Promises
TTITLE5=You Will Be Freed By Me
TTITLE6=Money Means Nothing At All
TTITLE7=Get You To Come Through
TTITLE8=She Told Me So
TTITLE9=They Didn't Feel
TTITLE10=The Joy That Is Inside
TTITLE11=The Bird
EXTD=
EXTT0=
EXTT1=
EXTT2=
EXTT3=
EXTT4=
EXTT5=
EXTT6=
EXTT7=
EXTT8=
EXTT9=
EXTT10=
EXTT11=
PLAYORDER=
